<?xml version="1.0" encoding="UTF-8" ?>
<svg version="1.1" width="1600" height="1600" xmlns="http://www.w3.org/2000/svg" shape-rendering="crispEdges">
<rect x="700" y="50" width="50" height="50" fill="#000000" />
<rect x="750" y="50" width="50" height="50" fill="#000000" />
<rect x="800" y="50" width="50" height="50" fill="#000000" />
<rect x="850" y="50" width="50" height="50" fill="#000000" />
<rect x="900" y="50" width="50" height="50" fill="#000000" />
<rect x="950" y="50" width="50" height="50" fill="#000000" />
<rect x="1000" y="50" width="50" height="50" fill="#000000" />
<rect x="1050" y="50" width="50" height="50" fill="#000000" />
<rect x="650" y="100" width="50" height="50" fill="#000000" />
<rect x="700" y="100" width="50" height="50" fill="#000000" />
<rect x="750" y="100" width="50" height="50" fill="#FFFFFF" />
<rect x="800" y="100" width="50" height="50" fill="#FFFFFF" />
<rect x="850" y="100" width="50" height="50" fill="#FFFFFF" />
<rect x="900" y="100" width="50" height="50" fill="#FFFFFF" />
<rect x="950" y="100" width="50" height="50" fill="#FFFFFF" />
<rect x="1000" y="100" width="50" height="50" fill="#FFFFFF" />
<rect x="1050" y="100" width="50" height="50" fill="#000000" />
<rect x="1100" y="100" width="50" height="50" fill="#000000" />
<rect x="600" y="150" width="50" height="50" fill="#000000" />
<rect x="650" y="150" width="50" height="50" fill="#000000" />
<rect x="700" y="150" width="50" height="50" fill="#FFFFFF" />
<rect x="750" y="150" width="50" height="50" fill="#76428A" />
<rect x="800" y="150" width="50" height="50" fill="#76428A" />
<rect x="850" y="150" width="50" height="50" fill="#76428A" />
<rect x="900" y="150" width="50" height="50" fill="#76428A" />
<rect x="950" y="150" width="50" height="50" fill="#76428A" />
<rect x="1000" y="150" width="50" height="50" fill="#76428A" />
<rect x="1050" y="150" width="50" height="50" fill="#FFFFFF" />
<rect x="1100" y="150" width="50" height="50" fill="#000000" />
<rect x="1150" y="150" width="50" height="50" fill="#000000" />
<rect x="550" y="200" width="50" height="50" fill="#000000" />
<rect x="600" y="200" width="50" height="50" fill="#000000" />
<rect x="650" y="200" width="50" height="50" fill="#FFFFFF" />
<rect x="700" y="200" width="50" height="50" fill="#76428A" />
<rect x="750" y="200" width="50" height="50" fill="#76428A" />
<rect x="800" y="200" width="50" height="50" fill="#76428A" />
<rect x="850" y="200" width="50" height="50" fill="#76428A" />
<rect x="900" y="200" width="50" height="50" fill="#76428A" />
<rect x="950" y="200" width="50" height="50" fill="#76428A" />
<rect x="1000" y="200" width="50" height="50" fill="#76428A" />
<rect x="1050" y="200" width="50" height="50" fill="#76428A" />
<rect x="1100" y="200" width="50" height="50" fill="#FFFFFF" />
<rect x="1150" y="200" width="50" height="50" fill="#000000" />
<rect x="550" y="250" width="50" height="50" fill="#000000" />
<rect x="600" y="250" width="50" height="50" fill="#FFFFFF" />
<rect x="650" y="250" width="50" height="50" fill="#76428A" />
<rect x="700" y="250" width="50" height="50" fill="#76428A" />
<rect x="750" y="250" width="50" height="50" fill="#76428A" />
<rect x="800" y="250" width="50" height="50" fill="#000000" />
<rect x="850" y="250" width="50" height="50" fill="#000000" />
<rect x="900" y="250" width="50" height="50" fill="#76428A" />
<rect x="950" y="250" width="50" height="50" fill="#76428A" />
<rect x="1000" y="250" width="50" height="50" fill="#76428A" />
<rect x="1050" y="250" width="50" height="50" fill="#FFFFFF" />
<rect x="1100" y="250" width="50" height="50" fill="#000000" />
<rect x="1150" y="250" width="50" height="50" fill="#000000" />
<rect x="500" y="300" width="50" height="50" fill="#000000" />
<rect x="550" y="300" width="50" height="50" fill="#000000" />
<rect x="600" y="300" width="50" height="50" fill="#FFFFFF" />
<rect x="650" y="300" width="50" height="50" fill="#76428A" />
<rect x="700" y="300" width="50" height="50" fill="#76428A" />
<rect x="750" y="300" width="50" height="50" fill="#76428A" />
<rect x="800" y="300" width="50" height="50" fill="#000000" />
<rect x="850" y="300" width="50" height="50" fill="#76428A" />
<rect x="900" y="300" width="50" height="50" fill="#76428A" />
<rect x="950" y="300" width="50" height="50" fill="#76428A" />
<rect x="1000" y="300" width="50" height="50" fill="#FFFFFF" />
<rect x="1050" y="300" width="50" height="50" fill="#000000" />
<rect x="1100" y="300" width="50" height="50" fill="#000000" />
<rect x="500" y="350" width="50" height="50" fill="#000000" />
<rect x="550" y="350" width="50" height="50" fill="#FFFFFF" />
<rect x="600" y="350" width="50" height="50" fill="#76428A" />
<rect x="650" y="350" width="50" height="50" fill="#76428A" />
<rect x="700" y="350" width="50" height="50" fill="#76428A" />
<rect x="750" y="350" width="50" height="50" fill="#76428A" />
<rect x="800" y="350" width="50" height="50" fill="#76428A" />
<rect x="850" y="350" width="50" height="50" fill="#76428A" />
<rect x="900" y="350" width="50" height="50" fill="#76428A" />
<rect x="950" y="350" width="50" height="50" fill="#FFFFFF" />
<rect x="1000" y="350" width="50" height="50" fill="#000000" />
<rect x="1050" y="350" width="50" height="50" fill="#000000" />
<rect x="450" y="400" width="50" height="50" fill="#000000" />
<rect x="500" y="400" width="50" height="50" fill="#000000" />
<rect x="550" y="400" width="50" height="50" fill="#FFFFFF" />
<rect x="600" y="400" width="50" height="50" fill="#76428A" />
<rect x="650" y="400" width="50" height="50" fill="#76428A" />
<rect x="700" y="400" width="50" height="50" fill="#76428A" />
<rect x="750" y="400" width="50" height="50" fill="#76428A" />
<rect x="800" y="400" width="50" height="50" fill="#76428A" />
<rect x="850" y="400" width="50" height="50" fill="#76428A" />
<rect x="900" y="400" width="50" height="50" fill="#FFFFFF" />
<rect x="950" y="400" width="50" height="50" fill="#000000" />
<rect x="1000" y="400" width="50" height="50" fill="#000000" />
<rect x="400" y="450" width="50" height="50" fill="#000000" />
<rect x="450" y="450" width="50" height="50" fill="#000000" />
<rect x="500" y="450" width="50" height="50" fill="#FFFFFF" />
<rect x="550" y="450" width="50" height="50" fill="#76428A" />
<rect x="600" y="450" width="50" height="50" fill="#76428A" />
<rect x="650" y="450" width="50" height="50" fill="#76428A" />
<rect x="700" y="450" width="50" height="50" fill="#76428A" />
<rect x="750" y="450" width="50" height="50" fill="#76428A" />
<rect x="800" y="450" width="50" height="50" fill="#76428A" />
<rect x="850" y="450" width="50" height="50" fill="#FFFFFF" />
<rect x="900" y="450" width="50" height="50" fill="#000000" />
<rect x="950" y="450" width="50" height="50" fill="#000000" />
<rect x="1000" y="450" width="50" height="50" fill="#000000" />
<rect x="400" y="500" width="50" height="50" fill="#000000" />
<rect x="450" y="500" width="50" height="50" fill="#FFFFFF" />
<rect x="500" y="500" width="50" height="50" fill="#76428A" />
<rect x="550" y="500" width="50" height="50" fill="#76428A" />
<rect x="600" y="500" width="50" height="50" fill="#76428A" />
<rect x="650" y="500" width="50" height="50" fill="#FFFFFF" />
<rect x="700" y="500" width="50" height="50" fill="#76428A" />
<rect x="750" y="500" width="50" height="50" fill="#76428A" />
<rect x="800" y="500" width="50" height="50" fill="#76428A" />
<rect x="850" y="500" width="50" height="50" fill="#76428A" />
<rect x="900" y="500" width="50" height="50" fill="#FFFFFF" />
<rect x="950" y="500" width="50" height="50" fill="#FFFFFF" />
<rect x="1000" y="500" width="50" height="50" fill="#000000" />
<rect x="1050" y="500" width="50" height="50" fill="#000000" />
<rect x="400" y="550" width="50" height="50" fill="#000000" />
<rect x="450" y="550" width="50" height="50" fill="#FFFFFF" />
<rect x="500" y="550" width="50" height="50" fill="#76428A" />
<rect x="550" y="550" width="50" height="50" fill="#76428A" />
<rect x="600" y="550" width="50" height="50" fill="#FFFFFF" />
<rect x="650" y="550" width="50" height="50" fill="#FFFFFF" />
<rect x="700" y="550" width="50" height="50" fill="#76428A" />
<rect x="750" y="550" width="50" height="50" fill="#76428A" />
<rect x="800" y="550" width="50" height="50" fill="#76428A" />
<rect x="850" y="550" width="50" height="50" fill="#76428A" />
<rect x="900" y="550" width="50" height="50" fill="#76428A" />
<rect x="950" y="550" width="50" height="50" fill="#76428A" />
<rect x="1000" y="550" width="50" height="50" fill="#FFFFFF" />
<rect x="1050" y="550" width="50" height="50" fill="#000000" />
<rect x="1100" y="550" width="50" height="50" fill="#000000" />
<rect x="350" y="600" width="50" height="50" fill="#000000" />
<rect x="400" y="600" width="50" height="50" fill="#000000" />
<rect x="450" y="600" width="50" height="50" fill="#FFFFFF" />
<rect x="500" y="600" width="50" height="50" fill="#76428A" />
<rect x="550" y="600" width="50" height="50" fill="#76428A" />
<rect x="600" y="600" width="50" height="50" fill="#76428A" />
<rect x="650" y="600" width="50" height="50" fill="#76428A" />
<rect x="700" y="600" width="50" height="50" fill="#76428A" />
<rect x="750" y="600" width="50" height="50" fill="#76428A" />
<rect x="800" y="600" width="50" height="50" fill="#76428A" />
<rect x="850" y="600" width="50" height="50" fill="#76428A" />
<rect x="900" y="600" width="50" height="50" fill="#76428A" />
<rect x="950" y="600" width="50" height="50" fill="#76428A" />
<rect x="1000" y="600" width="50" height="50" fill="#76428A" />
<rect x="1050" y="600" width="50" height="50" fill="#FFFFFF" />
<rect x="1100" y="600" width="50" height="50" fill="#000000" />
<rect x="1150" y="600" width="50" height="50" fill="#000000" />
<rect x="300" y="650" width="50" height="50" fill="#000000" />
<rect x="350" y="650" width="50" height="50" fill="#000000" />
<rect x="400" y="650" width="50" height="50" fill="#FFFFFF" />
<rect x="450" y="650" width="50" height="50" fill="#76428A" />
<rect x="500" y="650" width="50" height="50" fill="#76428A" />
<rect x="550" y="650" width="50" height="50" fill="#76428A" />
<rect x="600" y="650" width="50" height="50" fill="#76428A" />
<rect x="650" y="650" width="50" height="50" fill="#76428A" />
<rect x="700" y="650" width="50" height="50" fill="#76428A" />
<rect x="750" y="650" width="50" height="50" fill="#76428A" />
<rect x="800" y="650" width="50" height="50" fill="#76428A" />
<rect x="850" y="650" width="50" height="50" fill="#76428A" />
<rect x="900" y="650" width="50" height="50" fill="#76428A" />
<rect x="950" y="650" width="50" height="50" fill="#76428A" />
<rect x="1000" y="650" width="50" height="50" fill="#76428A" />
<rect x="1050" y="650" width="50" height="50" fill="#76428A" />
<rect x="1100" y="650" width="50" height="50" fill="#FFFFFF" />
<rect x="1150" y="650" width="50" height="50" fill="#000000" />
<rect x="1200" y="650" width="50" height="50" fill="#000000" />
<rect x="250" y="700" width="50" height="50" fill="#000000" />
<rect x="300" y="700" width="50" height="50" fill="#000000" />
<rect x="350" y="700" width="50" height="50" fill="#FFFFFF" />
<rect x="400" y="700" width="50" height="50" fill="#76428A" />
<rect x="450" y="700" width="50" height="50" fill="#76428A" />
<rect x="500" y="700" width="50" height="50" fill="#76428A" />
<rect x="550" y="700" width="50" height="50" fill="#76428A" />
<rect x="600" y="700" width="50" height="50" fill="#76428A" />
<rect x="650" y="700" width="50" height="50" fill="#FFFFFF" />
<rect x="700" y="700" width="50" height="50" fill="#FFFFFF" />
<rect x="750" y="700" width="50" height="50" fill="#76428A" />
<rect x="800" y="700" width="50" height="50" fill="#76428A" />
<rect x="850" y="700" width="50" height="50" fill="#76428A" />
<rect x="900" y="700" width="50" height="50" fill="#76428A" />
<rect x="950" y="700" width="50" height="50" fill="#76428A" />
<rect x="1000" y="700" width="50" height="50" fill="#76428A" />
<rect x="1050" y="700" width="50" height="50" fill="#76428A" />
<rect x="1100" y="700" width="50" height="50" fill="#76428A" />
<rect x="1150" y="700" width="50" height="50" fill="#FFFFFF" />
<rect x="1200" y="700" width="50" height="50" fill="#000000" />
<rect x="250" y="750" width="50" height="50" fill="#000000" />
<rect x="300" y="750" width="50" height="50" fill="#FFFFFF" />
<rect x="350" y="750" width="50" height="50" fill="#76428A" />
<rect x="400" y="750" width="50" height="50" fill="#76428A" />
<rect x="450" y="750" width="50" height="50" fill="#76428A" />
<rect x="500" y="750" width="50" height="50" fill="#FFFFFF" />
<rect x="550" y="750" width="50" height="50" fill="#FFFFFF" />
<rect x="600" y="750" width="50" height="50" fill="#FFFFFF" />
<rect x="650" y="750" width="50" height="50" fill="#000000" />
<rect x="700" y="750" width="50" height="50" fill="#000000" />
<rect x="750" y="750" width="50" height="50" fill="#FFFFFF" />
<rect x="800" y="750" width="50" height="50" fill="#76428A" />
<rect x="850" y="750" width="50" height="50" fill="#76428A" />
<rect x="900" y="750" width="50" height="50" fill="#76428A" />
<rect x="950" y="750" width="50" height="50" fill="#76428A" />
<rect x="1000" y="750" width="50" height="50" fill="#76428A" />
<rect x="1050" y="750" width="50" height="50" fill="#76428A" />
<rect x="1100" y="750" width="50" height="50" fill="#76428A" />
<rect x="1150" y="750" width="50" height="50" fill="#FFFFFF" />
<rect x="1200" y="750" width="50" height="50" fill="#000000" />
<rect x="250" y="800" width="50" height="50" fill="#000000" />
<rect x="300" y="800" width="50" height="50" fill="#FFFFFF" />
<rect x="350" y="800" width="50" height="50" fill="#76428A" />
<rect x="400" y="800" width="50" height="50" fill="#FFFFFF" />
<rect x="450" y="800" width="50" height="50" fill="#FFFFFF" />
<rect x="500" y="800" width="50" height="50" fill="#FFFFFF" />
<rect x="550" y="800" width="50" height="50" fill="#000000" />
<rect x="600" y="800" width="50" height="50" fill="#000000" />
<rect x="650" y="800" width="50" height="50" fill="#000000" />
<rect x="700" y="800" width="50" height="50" fill="#000000" />
<rect x="750" y="800" width="50" height="50" fill="#FFFFFF" />
<rect x="800" y="800" width="50" height="50" fill="#76428A" />
<rect x="850" y="800" width="50" height="50" fill="#76428A" />
<rect x="900" y="800" width="50" height="50" fill="#76428A" />
<rect x="950" y="800" width="50" height="50" fill="#76428A" />
<rect x="1000" y="800" width="50" height="50" fill="#76428A" />
<rect x="1050" y="800" width="50" height="50" fill="#76428A" />
<rect x="1100" y="800" width="50" height="50" fill="#FFFFFF" />
<rect x="1150" y="800" width="50" height="50" fill="#000000" />
<rect x="1200" y="800" width="50" height="50" fill="#000000" />
<rect x="250" y="850" width="50" height="50" fill="#000000" />
<rect x="300" y="850" width="50" height="50" fill="#000000" />
<rect x="350" y="850" width="50" height="50" fill="#FFFFFF" />
<rect x="400" y="850" width="50" height="50" fill="#000000" />
<rect x="450" y="850" width="50" height="50" fill="#000000" />
<rect x="500" y="850" width="50" height="50" fill="#000000" />
<rect x="550" y="850" width="50" height="50" fill="#000000" />
<rect x="600" y="850" width="50" height="50" fill="#000000" />
<rect x="650" y="850" width="50" height="50" fill="#000000" />
<rect x="700" y="850" width="50" height="50" fill="#FFFFFF" />
<rect x="750" y="850" width="50" height="50" fill="#76428A" />
<rect x="800" y="850" width="50" height="50" fill="#76428A" />
<rect x="850" y="850" width="50" height="50" fill="#76428A" />
<rect x="900" y="850" width="50" height="50" fill="#76428A" />
<rect x="950" y="850" width="50" height="50" fill="#76428A" />
<rect x="1000" y="850" width="50" height="50" fill="#76428A" />
<rect x="1050" y="850" width="50" height="50" fill="#FFFFFF" />
<rect x="1100" y="850" width="50" height="50" fill="#000000" />
<rect x="1150" y="850" width="50" height="50" fill="#000000" />
<rect x="300" y="900" width="50" height="50" fill="#000000" />
<rect x="350" y="900" width="50" height="50" fill="#000000" />
<rect x="400" y="900" width="50" height="50" fill="#000000" />
<rect x="600" y="900" width="50" height="50" fill="#000000" />
<rect x="650" y="900" width="50" height="50" fill="#FFFFFF" />
<rect x="700" y="900" width="50" height="50" fill="#76428A" />
<rect x="750" y="900" width="50" height="50" fill="#76428A" />
<rect x="800" y="900" width="50" height="50" fill="#76428A" />
<rect x="850" y="900" width="50" height="50" fill="#76428A" />
<rect x="900" y="900" width="50" height="50" fill="#76428A" />
<rect x="950" y="900" width="50" height="50" fill="#76428A" />
<rect x="1000" y="900" width="50" height="50" fill="#FFFFFF" />
<rect x="1050" y="900" width="50" height="50" fill="#000000" />
<rect x="1100" y="900" width="50" height="50" fill="#000000" />
<rect x="550" y="950" width="50" height="50" fill="#000000" />
<rect x="600" y="950" width="50" height="50" fill="#000000" />
<rect x="650" y="950" width="50" height="50" fill="#FFFFFF" />
<rect x="700" y="950" width="50" height="50" fill="#76428A" />
<rect x="750" y="950" width="50" height="50" fill="#76428A" />
<rect x="800" y="950" width="50" height="50" fill="#76428A" />
<rect x="850" y="950" width="50" height="50" fill="#76428A" />
<rect x="900" y="950" width="50" height="50" fill="#76428A" />
<rect x="950" y="950" width="50" height="50" fill="#FFFFFF" />
<rect x="1000" y="950" width="50" height="50" fill="#000000" />
<rect x="1050" y="950" width="50" height="50" fill="#000000" />
<rect x="550" y="1000" width="50" height="50" fill="#000000" />
<rect x="600" y="1000" width="50" height="50" fill="#FFFFFF" />
<rect x="650" y="1000" width="50" height="50" fill="#76428A" />
<rect x="700" y="1000" width="50" height="50" fill="#76428A" />
<rect x="750" y="1000" width="50" height="50" fill="#76428A" />
<rect x="800" y="1000" width="50" height="50" fill="#76428A" />
<rect x="850" y="1000" width="50" height="50" fill="#76428A" />
<rect x="900" y="1000" width="50" height="50" fill="#FFFFFF" />
<rect x="950" y="1000" width="50" height="50" fill="#000000" />
<rect x="1000" y="1000" width="50" height="50" fill="#000000" />
<rect x="500" y="1050" width="50" height="50" fill="#000000" />
<rect x="550" y="1050" width="50" height="50" fill="#000000" />
<rect x="600" y="1050" width="50" height="50" fill="#FFFFFF" />
<rect x="650" y="1050" width="50" height="50" fill="#76428A" />
<rect x="700" y="1050" width="50" height="50" fill="#76428A" />
<rect x="750" y="1050" width="50" height="50" fill="#76428A" />
<rect x="800" y="1050" width="50" height="50" fill="#76428A" />
<rect x="850" y="1050" width="50" height="50" fill="#FFFFFF" />
<rect x="900" y="1050" width="50" height="50" fill="#000000" />
<rect x="950" y="1050" width="50" height="50" fill="#000000" />
<rect x="450" y="1100" width="50" height="50" fill="#000000" />
<rect x="500" y="1100" width="50" height="50" fill="#000000" />
<rect x="550" y="1100" width="50" height="50" fill="#FFFFFF" />
<rect x="600" y="1100" width="50" height="50" fill="#76428A" />
<rect x="650" y="1100" width="50" height="50" fill="#76428A" />
<rect x="700" y="1100" width="50" height="50" fill="#76428A" />
<rect x="750" y="1100" width="50" height="50" fill="#76428A" />
<rect x="800" y="1100" width="50" height="50" fill="#FFFFFF" />
<rect x="850" y="1100" width="50" height="50" fill="#000000" />
<rect x="900" y="1100" width="50" height="50" fill="#000000" />
<rect x="400" y="1150" width="50" height="50" fill="#000000" />
<rect x="450" y="1150" width="50" height="50" fill="#000000" />
<rect x="500" y="1150" width="50" height="50" fill="#FFFFFF" />
<rect x="550" y="1150" width="50" height="50" fill="#76428A" />
<rect x="600" y="1150" width="50" height="50" fill="#76428A" />
<rect x="650" y="1150" width="50" height="50" fill="#76428A" />
<rect x="700" y="1150" width="50" height="50" fill="#76428A" />
<rect x="750" y="1150" width="50" height="50" fill="#FFFFFF" />
<rect x="800" y="1150" width="50" height="50" fill="#000000" />
<rect x="850" y="1150" width="50" height="50" fill="#000000" />
<rect x="400" y="1200" width="50" height="50" fill="#000000" />
<rect x="450" y="1200" width="50" height="50" fill="#FFFFFF" />
<rect x="500" y="1200" width="50" height="50" fill="#76428A" />
<rect x="550" y="1200" width="50" height="50" fill="#76428A" />
<rect x="600" y="1200" width="50" height="50" fill="#76428A" />
<rect x="650" y="1200" width="50" height="50" fill="#76428A" />
<rect x="700" y="1200" width="50" height="50" fill="#76428A" />
<rect x="750" y="1200" width="50" height="50" fill="#FFFFFF" />
<rect x="800" y="1200" width="50" height="50" fill="#000000" />
<rect x="350" y="1250" width="50" height="50" fill="#000000" />
<rect x="400" y="1250" width="50" height="50" fill="#000000" />
<rect x="450" y="1250" width="50" height="50" fill="#FFFFFF" />
<rect x="500" y="1250" width="50" height="50" fill="#76428A" />
<rect x="550" y="1250" width="50" height="50" fill="#76428A" />
<rect x="600" y="1250" width="50" height="50" fill="#76428A" />
<rect x="650" y="1250" width="50" height="50" fill="#76428A" />
<rect x="700" y="1250" width="50" height="50" fill="#FFFFFF" />
<rect x="750" y="1250" width="50" height="50" fill="#000000" />
<rect x="800" y="1250" width="50" height="50" fill="#000000" />
<rect x="350" y="1300" width="50" height="50" fill="#000000" />
<rect x="400" y="1300" width="50" height="50" fill="#FFFFFF" />
<rect x="450" y="1300" width="50" height="50" fill="#76428A" />
<rect x="500" y="1300" width="50" height="50" fill="#76428A" />
<rect x="550" y="1300" width="50" height="50" fill="#76428A" />
<rect x="600" y="1300" width="50" height="50" fill="#76428A" />
<rect x="650" y="1300" width="50" height="50" fill="#FFFFFF" />
<rect x="700" y="1300" width="50" height="50" fill="#000000" />
<rect x="750" y="1300" width="50" height="50" fill="#000000" />
<rect x="350" y="1350" width="50" height="50" fill="#000000" />
<rect x="400" y="1350" width="50" height="50" fill="#FFFFFF" />
<rect x="450" y="1350" width="50" height="50" fill="#76428A" />
<rect x="500" y="1350" width="50" height="50" fill="#76428A" />
<rect x="550" y="1350" width="50" height="50" fill="#FFFFFF" />
<rect x="600" y="1350" width="50" height="50" fill="#FFFFFF" />
<rect x="650" y="1350" width="50" height="50" fill="#000000" />
<rect x="700" y="1350" width="50" height="50" fill="#000000" />
<rect x="300" y="1400" width="50" height="50" fill="#000000" />
<rect x="350" y="1400" width="50" height="50" fill="#000000" />
<rect x="400" y="1400" width="50" height="50" fill="#000000" />
<rect x="450" y="1400" width="50" height="50" fill="#FFFFFF" />
<rect x="500" y="1400" width="50" height="50" fill="#FFFFFF" />
<rect x="550" y="1400" width="50" height="50" fill="#000000" />
<rect x="600" y="1400" width="50" height="50" fill="#000000" />
<rect x="650" y="1400" width="50" height="50" fill="#000000" />
<rect x="300" y="1450" width="50" height="50" fill="#000000" />
<rect x="350" y="1450" width="50" height="50" fill="#FFFFFF" />
<rect x="400" y="1450" width="50" height="50" fill="#000000" />
<rect x="450" y="1450" width="50" height="50" fill="#000000" />
<rect x="500" y="1450" width="50" height="50" fill="#000000" />
<rect x="550" y="1450" width="50" height="50" fill="#000000" />
<rect x="300" y="1500" width="50" height="50" fill="#000000" />
<rect x="350" y="1500" width="50" height="50" fill="#000000" />
<rect x="400" y="1500" width="50" height="50" fill="#000000" />
</svg>